<svg xmlns="http://www.w3.org/2000/svg" width="73.958" height="30" viewBox="0 0 73.958 30">
  <g id="MISA" transform="translate(0 0)">
    <path id="Path_13843" data-name="Path 13843" d="M971.792,438.973c.4-.756-10.608,4.165-14.259,6.92-1.29.974-1.24,2.138.288,3.049l4.85,2.889c2.158,1.053,1.4,1.953.985,2.419-1.706,1.921-8.465,6.081-10.8,7.44a.078.078,0,0,0-.027.065c-.02.858,17.885-4.734,18.817-8.389.422-1.657-5.351-3.889-7-4.993-.962-.644-.823-1.727.037-2.555Z" transform="translate(-916.893 -438.895)" fill="#e82127" fill-rule="evenodd"/>
    <path id="Path_13844" data-name="Path 13844" d="M1182.87,464.449h0a2.411,2.411,0,0,0-3.424,0h0a2.441,2.441,0,0,0,0,3.441h0a2.413,2.413,0,0,0,3.424,0h0a2.443,2.443,0,0,0,0-3.441Zm-.275,3.045-.418-.657a2.074,2.074,0,0,0-.328-.4,1.006,1.006,0,0,0-.239-.15,1.04,1.04,0,0,0,.636-.278.753.753,0,0,0,.205-.538.854.854,0,0,0-.124-.452.671.671,0,0,0-.332-.285,1.771,1.771,0,0,0-.607-.081h-1.323v3h.395v-1.332h.458a1.3,1.3,0,0,1,.221.014.608.608,0,0,1,.18.08.871.871,0,0,1,.2.2c.075.095.17.233.286.413l.394.624h.233a1.945,1.945,0,0,1-2.655-.1,1.97,1.97,0,0,1,0-2.775,1.947,1.947,0,0,1,2.761,0,1.966,1.966,0,0,1,.057,2.711Zm-1.285-1.516h-.85v-.993h.945a.721.721,0,0,1,.486.137.45.45,0,0,1,.153.35.491.491,0,0,1-.078.269.453.453,0,0,1-.233.18A1.264,1.264,0,0,1,1181.31,465.978Z" transform="translate(-1109.785 -460.105)" fill="#221f1f" fill-rule="evenodd"/>
    <g id="Group_26834" data-name="Group 26834" transform="translate(0 3.682)">
      <path id="Path_13845" data-name="Path 13845" d="M708.157,611.8h1.2v3.1h.815v-3.1h1.209v-.654h-3.224Z" transform="translate(-707.978 -589.653)" fill="#221f1f" fill-rule="evenodd"/>
      <rect id="Rectangle_15465" data-name="Rectangle 15465" width="0.823" height="3.762" transform="translate(3.788 21.481)" fill="#221f1f"/>
      <path id="Path_13846" data-name="Path 13846" d="M744.489,613.791l-1.527-2.711h-1v3.763h.806l-.03-2.841,1.6,2.841h.9v-3.763h-.789Z" transform="translate(-736.845 -589.599)" fill="#221f1f" fill-rule="evenodd"/>
      <path id="Path_13847" data-name="Path 13847" d="M776.937,611.627a2.248,2.248,0,0,0-.374,1.407,1.89,1.89,0,0,0,.427,1.333,1.724,1.724,0,0,0,1.324.477h1.323v-.654h-1.293a1.456,1.456,0,0,1-.475-.058.566.566,0,0,1-.326-.3,2.415,2.415,0,0,1,.135-1.828.792.792,0,0,1,.666-.275h1.293v-.643h-1.3A1.67,1.67,0,0,0,776.937,611.627Z" transform="translate(-766.387 -589.6)" fill="#221f1f" fill-rule="evenodd"/>
      <path id="Path_13848" data-name="Path 13848" d="M799.682,611.081l-1.573,3.762h.834l.323-.9H800.9l.343.9h.874l-1.6-3.762Zm-.163,2.2.554-1.439.566,1.439Z" transform="translate(-784.784 -589.6)" fill="#221f1f" fill-rule="evenodd"/>
      <path id="Path_13849" data-name="Path 13849" d="M822.439,612.525l-.927-1.445h-.874l1.412,2.109v1.654h.8V613.19l1.432-2.109h-.907Z" transform="translate(-804.021 -589.599)" fill="#221f1f" fill-rule="evenodd"/>
      <rect id="Rectangle_15466" data-name="Rectangle 15466" width="1.751" height="0.656" transform="translate(20.593 23.506)" fill="#221f1f"/>
      <rect id="Rectangle_15467" data-name="Rectangle 15467" width="0.823" height="3.762" transform="translate(26.906 21.481)" fill="#221f1f"/>
      <path id="Path_13850" data-name="Path 13850" d="M900.732,611.627a2.253,2.253,0,0,0-.373,1.407,1.89,1.89,0,0,0,.427,1.333,1.725,1.725,0,0,0,1.324.477h1.323v-.654H902.14a.92.92,0,0,1-.668-.207.981.981,0,0,1-.216-.715h2.177v-.654h-2.177a.874.874,0,0,1,.23-.657.9.9,0,0,1,.655-.223h1.292v-.653h-1.3A1.671,1.671,0,0,0,900.732,611.627Z" transform="translate(-872.091 -589.6)" fill="#221f1f" fill-rule="evenodd"/>
      <path id="Path_13851" data-name="Path 13851" d="M866.349,611.8h1.2v3.1h.815v-3.1h1.21v-.654h-3.223Z" transform="translate(-843.051 -589.653)" fill="#221f1f" fill-rule="evenodd"/>
      <path id="Path_13852" data-name="Path 13852" d="M928.661,613.791l-1.527-2.711h-1v3.763h.806l-.03-2.841,1.6,2.841h.9v-3.763h-.79Z" transform="translate(-894.101 -589.599)" fill="#221f1f" fill-rule="evenodd"/>
      <rect id="Rectangle_15468" data-name="Rectangle 15468" width="0.823" height="3.762" transform="translate(37.505 21.481)" fill="#221f1f"/>
      <path id="Path_13853" data-name="Path 13853" d="M973.25,611.627a2.254,2.254,0,0,0-.374,1.407,1.891,1.891,0,0,0,.427,1.333,1.725,1.725,0,0,0,1.324.477h1.323v-.654h-1.293a1.454,1.454,0,0,1-.474-.058.567.567,0,0,1-.326-.3,1.787,1.787,0,0,1-.119-.738,1.806,1.806,0,0,1,.253-1.09.794.794,0,0,1,.666-.275h1.293v-.643h-1.3A1.672,1.672,0,0,0,973.25,611.627Z" transform="translate(-934.01 -589.6)" fill="#221f1f" fill-rule="evenodd"/>
      <path id="Path_13854" data-name="Path 13854" d="M1000.106,612.6h-1.444v-1.524h-.784v3.763h.784v-1.575h1.444v1.575h.782v-3.763h-.782Z" transform="translate(-955.359 -589.599)" fill="#221f1f" fill-rule="evenodd"/>
      <rect id="Rectangle_15469" data-name="Rectangle 15469" width="1.751" height="0.656" transform="translate(46.638 23.506)" fill="#221f1f"/>
      <path id="Path_13855" data-name="Path 13855" d="M1046.614,611.143h-3.223v.654h1.2v3.1h.815v-3.1h1.208Z" transform="translate(-994.22 -589.653)" fill="#221f1f" fill-rule="evenodd"/>
      <path id="Path_13856" data-name="Path 13856" d="M1062.8,611.081l-1.573,3.762h.834l.322-.9h1.631l.343.9h.874l-1.6-3.762Zm-.163,2.2.554-1.439.567,1.439Z" transform="translate(-1009.449 -589.6)" fill="#221f1f" fill-rule="evenodd"/>
      <path id="Path_13857" data-name="Path 13857" d="M1092.963,613.791l-1.527-2.711h-1v3.763h.806l-.03-2.841,1.6,2.841h.9v-3.763h-.789Z" transform="translate(-1034.391 -589.599)" fill="#221f1f" fill-rule="evenodd"/>
      <path id="Path_13858" data-name="Path 13858" d="M1194.63,611.081V612.6h-1.444v-1.524h-.785v3.763h.785v-1.575h1.444v1.575h.781v-3.763Z" transform="translate(-1121.454 -589.599)" fill="#221f1f" fill-rule="evenodd"/>
      <path id="Path_13859" data-name="Path 13859" d="M1129.018,611.8h1.2v3.1h.814v-3.1h1.21v-.654h-3.223Z" transform="translate(-1067.333 -589.653)" fill="#221f1f" fill-rule="evenodd"/>
      <path id="Path_13860" data-name="Path 13860" d="M1167.239,613.791l-1.526-2.711h-1v3.763h.806l-.031-2.841,1.6,2.841h.9v-3.763h-.789Z" transform="translate(-1097.813 -589.599)" fill="#221f1f" fill-rule="evenodd"/>
      <rect id="Rectangle_15470" data-name="Rectangle 15470" width="0.823" height="3.762" transform="translate(65.293 21.481)" fill="#221f1f"/>
      <rect id="Rectangle_15471" data-name="Rectangle 15471" width="5.427" height="16.52" transform="translate(29.864 0.079)" fill="#221f1f"/>
      <path id="Path_13861" data-name="Path 13861" d="M1090.516,474.041l3.773,6.657h5.767l-9.54-16.607-9.54,16.607h5.767Z" transform="translate(-1026.313 -464.091)" fill="#221f1f" fill-rule="evenodd"/>
      <path id="Path_13862" data-name="Path 13862" d="M716.5,474.064l4.5,8.013,4.49-8.013,3.781,6.666h5.783l-9.563-16.64L721,471.915l-4.494-7.824-9.57,16.66h5.78Z" transform="translate(-706.934 -464.091)" fill="#221f1f" fill-rule="evenodd"/>
      <rect id="Rectangle_15472" data-name="Rectangle 15472" width="35.275" height="0.74" transform="translate(0.016 18.525)" fill="#221f1f"/>
      <rect id="Rectangle_15473" data-name="Rectangle 15473" width="28.136" height="0.74" transform="translate(45.582 18.525)" fill="#221f1f"/>
      <path id="Path_13863" data-name="Path 13863" d="M965.939,603.659h-.879l-.667.849.494-.011Z" transform="translate(-926.767 -583.262)" fill="#221f1f" fill-rule="evenodd"/>
      <rect id="Rectangle_15474" data-name="Rectangle 15474" width="0.78" height="0.713" transform="translate(29.735 25.605)" fill="#221f1f"/>
      <path id="Path_13864" data-name="Path 13864" d="M905.813,604.754h.687l.361-.375.314.375h.757l-.757-.807h-.617Z" transform="translate(-876.748 -583.508)" fill="#221f1f" fill-rule="evenodd"/>
      <path id="Path_13865" data-name="Path 13865" d="M804.557,604.754h.687l.361-.375.314.375h.757l-.757-.807H805.3Z" transform="translate(-790.29 -583.508)" fill="#221f1f" fill-rule="evenodd"/>
      <rect id="Rectangle_15475" data-name="Rectangle 15475" width="0.78" height="0.713" transform="translate(14.937 25.605)" fill="#221f1f"/>
      <rect id="Rectangle_15476" data-name="Rectangle 15476" width="0.78" height="0.713" transform="translate(53.389 25.605)" fill="#221f1f"/>
      <path id="Path_13866" data-name="Path 13866" d="M1067.674,604.754h.687l.361-.375.314.375h.757l-.757-.807h-.617Z" transform="translate(-1014.954 -583.508)" fill="#221f1f" fill-rule="evenodd"/>
      <path id="Path_13867" data-name="Path 13867" d="M1148.924,603.659l1.052.838.494.011-.668-.849Z" transform="translate(-1084.331 -583.262)" fill="#221f1f" fill-rule="evenodd"/>
    </g>
  </g>
</svg>
